<?xml version="1.0" standalone="no"?>
<!DOCTYPE svg PUBLIC "-//W3C//DTD SVG 20010904//EN"
 "http://www.w3.org/TR/2001/REC-SVG-20010904/DTD/svg10.dtd">
<svg version="1.0" xmlns="http://www.w3.org/2000/svg"
 width="1200.000000pt" height="233.000000pt" viewBox="0 0 1200.000000 233.000000"
 preserveAspectRatio="xMidYMid meet">

<g transform="translate(0.000000,233.000000) scale(0.100000,-0.100000)"
fill="#000000" stroke="none">
<path d="M260 1190 l0 -770 295 0 296 0 -3 88 -3 87 -162 3 -163 2 0 586 0
585 163 -2 162 -1 3 96 3 96 -296 0 -295 0 0 -770z"/>
<path d="M1143 1950 c-76 -16 -120 -47 -144 -105 -8 -20 -15 -116 -19 -280 -6
-281 -9 -291 -79 -340 -23 -15 -41 -33 -41 -40 0 -7 17 -24 38 -38 74 -52 76
-62 82 -342 5 -207 9 -255 23 -281 38 -72 112 -104 237 -104 71 0 78 15 23 45
-21 11 -43 31 -50 45 -8 17 -13 107 -16 265 -4 197 -8 248 -22 283 -19 46 -59
85 -111 107 -41 17 -43 31 -6 40 44 11 93 55 115 104 19 42 21 69 25 290 4
271 7 287 67 315 56 27 46 46 -22 45 -32 -1 -77 -5 -100 -9z"/>
<path d="M3340 1792 c0 -4 -35 -9 -77 -10 -94 -3 -137 -14 -228 -57 -61 -29
-129 -84 -173 -139 -46 -57 -61 -211 -29 -301 9 -27 32 -66 50 -86 83 -90 193
-123 482 -144 110 -8 231 -22 270 -31 104 -26 140 -74 116 -155 -10 -34 -20
-43 -74 -70 -86 -44 -223 -72 -313 -65 -105 8 -232 41 -318 82 -64 30 -80 42
-97 76 -23 46 -30 43 -57 -27 -11 -27 -36 -85 -56 -128 -20 -42 -36 -79 -36
-81 0 -3 21 -4 48 -4 31 1 66 -8 102 -24 141 -65 349 -90 565 -69 235 23 385
98 463 230 23 39 27 60 30 141 5 121 -16 178 -89 244 -75 68 -150 90 -380 115
-319 35 -360 41 -400 61 -49 26 -69 55 -69 105 0 47 4 53 50 86 122 87 405 82
591 -12 58 -29 119 -88 119 -115 0 -36 27 -1 96 125 41 73 74 137 74 142 0 5
-18 6 -40 3 -30 -5 -58 0 -113 19 -156 56 -245 77 -343 78 -51 1 -94 5 -94 10
0 5 -16 9 -35 9 -19 0 -35 -4 -35 -8z"/>
<path d="M5067 1793 c-4 -3 -49 -10 -99 -14 -266 -20 -500 -180 -592 -403 -26
-65 -29 -81 -30 -202 -1 -122 1 -135 29 -205 149 -378 690 -534 1121 -323 301
147 424 480 284 772 -97 202 -357 362 -592 362 -45 0 -78 4 -78 10 0 11 -33
14 -43 3z m154 -219 c298 -66 454 -338 329 -573 -18 -33 -49 -77 -70 -97 -21
-21 -36 -43 -33 -49 4 -5 3 -7 -1 -4 -4 4 -45 -12 -91 -36 -163 -83 -360 -85
-520 -6 -138 68 -211 156 -241 287 -15 69 -15 79 1 148 19 86 71 174 131 222
133 106 321 146 495 108z"/>
<path d="M2060 1766 c0 -7 16 -20 35 -29 20 -9 37 -26 40 -39 3 -13 5 -210 3
-438 -3 -414 -3 -415 -26 -452 -39 -62 -94 -82 -232 -82 -97 0 -123 3 -170 23
-69 28 -116 63 -135 102 -21 39 -37 36 -57 -9 -90 -204 -102 -242 -75 -242 7
0 18 5 24 11 13 13 17 12 183 -33 113 -30 349 -33 450 -5 141 38 223 98 269
196 l26 56 5 442 c4 335 8 445 17 455 7 6 28 17 45 22 72 24 31 31 -184 33
-170 2 -218 -1 -218 -11z"/>
<path d="M6220 1769 c0 -6 9 -18 20 -27 19 -17 20 -30 20 -564 1 -536 -2 -588
-30 -588 -6 0 -10 -7 -10 -15 0 -17 8 -18 150 -16 58 0 124 1 148 1 46 0 56
15 18 29 -13 5 -26 17 -30 26 -7 20 -8 805 0 805 3 0 67 -64 142 -142 75 -79
191 -199 258 -268 66 -69 156 -162 199 -207 43 -46 83 -80 89 -76 6 3 8 3 4
-1 -4 -5 14 -33 39 -64 44 -54 45 -56 24 -66 -28 -12 -27 -36 2 -37 95 -2 341
1 345 6 3 2 -7 16 -21 29 l-27 25 0 551 0 551 25 23 c13 13 22 26 18 29 -3 4
-82 7 -175 7 -143 0 -168 -2 -168 -15 0 -8 8 -15 19 -15 41 0 42 -13 44 -414
1 -212 -1 -386 -4 -386 -3 0 -50 46 -104 103 -54 56 -189 197 -301 312 -343
357 -315 324 -310 373 l6 42 -195 0 c-134 0 -195 -3 -195 -11z"/>
<path d="M9212 1589 c-176 -22 -325 -107 -411 -233 -94 -138 -107 -365 -28
-526 101 -205 359 -312 675 -279 l113 12 58 -57 c76 -75 88 -97 72 -132 -26
-59 7 -46 128 47 67 51 120 97 118 103 -2 6 -19 10 -38 8 -28 -2 -45 6 -96 48
-35 28 -63 55 -63 59 0 5 18 21 41 37 55 38 121 126 149 199 34 90 40 259 12
352 -82 268 -367 409 -730 362z m191 -170 c140 -21 259 -104 310 -217 33 -73
31 -199 -5 -272 -15 -30 -47 -75 -71 -98 l-45 -44 -73 62 c-97 82 -146 104
-231 105 -101 0 -103 -13 -14 -80 80 -60 149 -132 143 -149 -10 -32 -181 -10
-274 35 -78 38 -154 119 -179 191 -23 66 -23 176 0 237 43 117 163 205 311
230 28 5 51 9 53 10 2 0 36 -4 75 -10z"/>
<path d="M10095 1590 c-7 -11 -6 -147 1 -172 3 -10 21 -25 40 -34 61 -29 131
-101 165 -169 27 -56 31 -73 31 -149 0 -69 -5 -95 -25 -139 -31 -68 -87 -130
-146 -164 -25 -14 -52 -33 -58 -41 -14 -17 -16 -64 -7 -136 8 -55 14 -56 115
-21 174 60 274 158 330 320 19 57 23 90 23 180 0 90 -4 123 -23 180 -56 162
-161 265 -334 326 -90 31 -103 34 -112 19z"/>
<path d="M10650 1501 l0 -100 35 -17 c62 -29 132 -101 166 -169 27 -56 31 -73
31 -149 0 -69 -5 -95 -25 -139 -32 -70 -88 -132 -154 -169 l-53 -30 0 -94 c0
-110 -2 -109 111 -69 174 60 274 158 330 320 19 57 23 90 23 180 0 90 -4 123
-23 180 -40 117 -100 195 -201 262 -48 31 -153 76 -207 88 l-33 7 0 -101z"/>
<path d="M11139 1596 c-2 -2 -2 -46 1 -97 l5 -93 39 -21 c67 -35 133 -102 167
-170 27 -56 31 -73 31 -150 0 -76 -4 -94 -30 -148 -35 -70 -84 -122 -157 -164
l-50 -29 -3 -92 -3 -92 26 0 c38 0 160 45 218 81 103 62 166 142 208 264 34
100 34 270 -1 365 -59 161 -162 261 -333 321 -79 27 -109 34 -118 25z"/>
<path d="M8064 1576 c-8 -21 3 -36 26 -36 11 0 24 -9 30 -19 6 -13 10 -174 10
-455 0 -423 -1 -437 -20 -456 -11 -11 -27 -20 -36 -20 -9 0 -14 -7 -12 -18 3
-15 20 -17 178 -17 157 0 175 2 178 17 2 12 -5 19 -23 24 -14 3 -30 14 -35 24
-13 24 -13 860 -1 894 6 14 19 26 33 28 15 2 23 10 23 23 0 19 -8 20 -173 23
-145 2 -173 0 -178 -12z"/>
</g>
</svg>
